HIERARCHY
ROOT hip
{
  OFFSET 0 0 0
  CHANNELS 6 Xposition Yposition Zposition Zrotation Yrotation Xrotation
  JOINT abdomen
  {
    OFFSET 0 20.6881 -0.73152
    CHANNELS 3 Zrotation Xrotation Yrotation
    JOINT chest
    {
      OFFSET 0 11.7043 -0.48768
      CHANNELS 3 Zrotation Xrotation Yrotation
      JOINT neck
      {
        OFFSET 0 22.1894 -2.19456
        CHANNELS 3 Zrotation Xrotation Yrotation
        JOINT head
        {
          OFFSET -0.24384 7.07133 1.2192
          CHANNELS 3 Zrotation Xrotation Yrotation
          JOINT leftEye
          {
            OFFSET 4.14528 8.04674 8.04672
            CHANNELS 3 Zrotation Xrotation Yrotation
            End Site
            {
              OFFSET 1 0 0
            }
          }
          JOINT rightEye
          {
            OFFSET -3.6576 8.04674 8.04672
            CHANNELS 3 Zrotation Xrotation Yrotation
            End Site
            {
              OFFSET 1 0 0
            }
          }
        }
      }
      JOINT rCollar
      {
        OFFSET -2.68224 19.2634 -4.8768
        CHANNELS 3 Zrotation Xrotation Yrotation
        JOINT rShldr
        {
          OFFSET -8.77824 -1.95073 1.46304
          CHANNELS 3 Zrotation Xrotation Yrotation
          JOINT rForeArm
          {
            OFFSET -28.1742 -1.7115 0.48768
            CHANNELS 3 Zrotation Xrotation Yrotation
            JOINT rHand
            {
              OFFSET -22.5879 0.773209 7.07136
              CHANNELS 3 Zrotation Xrotation Yrotation
              JOINT rThumb1
              {
                OFFSET -1.2192 -0.487915 3.41376
                CHANNELS 3 Zrotation Xrotation Yrotation
                JOINT rThumb2
                {
                  OFFSET -3.37035 -0.52449 3.41376
                  CHANNELS 3 Zrotation Xrotation Yrotation
                  End Site
                  {
                    OFFSET -1.78271 -1.18214 1.43049
                  }
                }
              }
              JOINT rIndex1
              {
                OFFSET -7.75947 0.938293 5.60832
                CHANNELS 3 Zrotation Xrotation Yrotation
                JOINT rIndex2
                {
                  OFFSET -2.54057 -0.884171 1.56538
                  CHANNELS 3 Zrotation Xrotation Yrotation
                  End Site
                  {
                    OFFSET -1.62519 -0.234802 1.16502
                  }
                }
              }
              JOINT rMid1
              {
                OFFSET -8.24714 1.18213 3.41376
                CHANNELS 3 Zrotation Xrotation Yrotation
                JOINT rMid2
                {
                  OFFSET -3.10165 -0.590103 1.0647
                  CHANNELS 3 Zrotation Xrotation Yrotation
                  End Site
                  {
                    OFFSET -2.48547 -0.328903 0.83742
                  }
                }
              }
              JOINT rRing1
              {
                OFFSET -8.82822 0.546677 1.51678
                CHANNELS 3 Zrotation Xrotation Yrotation
                JOINT rRing2
                {
                  OFFSET -2.60934 -0.819778 -0.0198488
                  CHANNELS 3 Zrotation Xrotation Yrotation
                  End Site
                  {
                    OFFSET -2.33842 -0.294052 0.168128
                  }
                }
              }
              JOINT rPinky1
              {
                OFFSET -8.27202 -0.0477905 -0.4584
                CHANNELS 3 Zrotation Xrotation Yrotation
                JOINT rPinky2
                {
                  OFFSET -1.82734 -0.647385 -0.700984
                  CHANNELS 3 Zrotation Xrotation Yrotation
                  End Site
                  {
                    OFFSET -1.69225 -0.51767 -0.607171
                  }
                }
              }
            }
          }
        }
      }
      JOINT lCollar
      {
        OFFSET 2.68224 19.2634 -4.8768
        CHANNELS 3 Zrotation Xrotation Yrotation
        JOINT lShldr
        {
          OFFSET 8.77824 -1.95073 1.46304
          CHANNELS 3 Zrotation Xrotation Yrotation
          JOINT lForeArm
          {
            OFFSET 28.1742 -1.7115 0.48768
            CHANNELS 3 Zrotation Xrotation Yrotation
            JOINT lHand
            {
              OFFSET 22.5879 0.773209 7.07136
              CHANNELS 3 Zrotation Xrotation Yrotation
              JOINT lThumb1
              {
                OFFSET 1.2192 -0.487915 3.41376
                CHANNELS 3 Zrotation Xrotation Yrotation
                JOINT lThumb2
                {
                  OFFSET 3.37035 -0.52449 3.41376
                  CHANNELS 3 Zrotation Xrotation Yrotation
                  End Site
                  {
                    OFFSET 1.78271 -1.18214 1.43049
                  }
                }
              }
              JOINT lIndex1
              {
                OFFSET 7.75947 0.938293 5.60832
                CHANNELS 3 Zrotation Xrotation Yrotation
                JOINT lIndex2
                {
                  OFFSET 2.54057 -0.884171 1.56538
                  CHANNELS 3 Zrotation Xrotation Yrotation
                  End Site
                  {
                    OFFSET 1.62519 -0.234802 1.16502
                  }
                }
              }
              JOINT lMid1
              {
                OFFSET 8.24714 1.18213 3.41376
                CHANNELS 3 Zrotation Xrotation Yrotation
                JOINT lMid2
                {
                  OFFSET 3.10165 -0.590103 1.0647
                  CHANNELS 3 Zrotation Xrotation Yrotation
                  End Site
                  {
                    OFFSET 2.48547 -0.328903 0.83742
                  }
                }
              }
              JOINT lRing1
              {
                OFFSET 8.82822 0.546677 1.51678
                CHANNELS 3 Zrotation Xrotation Yrotation
                JOINT lRing2
                {
                  OFFSET 2.60934 -0.819778 -0.0198488
                  CHANNELS 3 Zrotation Xrotation Yrotation
                  End Site
                  {
                    OFFSET 2.33842 -0.294052 0.168128
                  }
                }
              }
              JOINT lPinky1
              {
                OFFSET 8.27202 -0.0477905 -0.4584
                CHANNELS 3 Zrotation Xrotation Yrotation
                JOINT lPinky2
                {
                  OFFSET 1.82734 -0.647385 -0.700984
                  CHANNELS 3 Zrotation Xrotation Yrotation
                  End Site
                  {
                    OFFSET 1.69225 -0.51767 -0.607171
                  }
                }
              }
            }
          }
        }
      }
    }
  }
  JOINT rButtock
  {
    OFFSET -8.77824 4.35084 1.2192
    CHANNELS 3 Zrotation Xrotation Yrotation
    JOINT rThigh
    {
      OFFSET 0 -1.70687 -2.19456
      CHANNELS 3 Zrotation Xrotation Yrotation
      JOINT rShin
      {
        OFFSET 0 -36.8199 0.73152
        CHANNELS 3 Zrotation Xrotation Yrotation
        JOINT rFoot
        {
          OFFSET 0.73152 -45.1104 -5.12064
          CHANNELS 3 Zrotation Xrotation Yrotation
          End Site
          {
            OFFSET -1.1221 -3.69964 12.103
          }
        }
      }
    }
  }
  JOINT lButtock
  {
    OFFSET 8.77824 4.35084 1.2192
    CHANNELS 3 Zrotation Xrotation Yrotation
    JOINT lThigh
    {
      OFFSET 0 -1.70687 -2.19456
      CHANNELS 3 Zrotation Xrotation Yrotation
      JOINT lShin
      {
        OFFSET 0 -36.8199 0.73152
        CHANNELS 3 Zrotation Xrotation Yrotation
        JOINT lFoot
        {
          OFFSET -0.73152 -45.1104 -5.12064
          CHANNELS 3 Zrotation Xrotation Yrotation
          End Site
          {
            OFFSET 1.1221 -3.69964 12.103
          }
        }
      }
    }
  }
}
MOTION
Frames:	5
Frame Time:	0.03333
-7.50678 58.0979 -9.39532 -13.2938 -32.0868 16.5369 0.940449 10.9633 14.5284 2.8494799999999993 -10.7634 4.18787 -2.90807 11.545599999999999 4.11874 6.49924 -24.6542 9.84606 -0.0 0.0 0.0 -0.0 0.0 0.0 -1.4651e-13 -4.98156e-13 -6.82179e-13 -6.46851 51.80179999999999 89.9133 -28.001699999999996 -30.1483 66.686 -0.110658 7.310490000000001 1.02748 2.36959e-09 1.12467e-08 -4.38503e-09 4.07518e-09 1.9419000000000003e-08 -7.582029999999998e-09 2.3695999999999998e-09 1.12467e-08 -4.38504e-09 7.730909999999999 5.47488 0.417314 2.36959e-09 1.12467e-08 -4.38503e-09 2.90554 0.965183 0.102902 2.3695999999999998e-09 1.12467e-08 -4.38503e-09 10.278600000000003 0.731801 0.0259123 2.36959e-09 1.12467e-08 -4.38502e-09 2.22167 -0.733487 -0.20892000000000002 -1.46682e-13 -4.98154e-13 -6.825090000000001e-13 12.1648 20.4968 -97.6631 22.7064 -50.7556 -107.136 0.141285 -9.053140000000003 1.29643 -4.36036e-10 4.65155e-10 -3.80659e-09 -7.29803e-10 8.10846e-10 -6.58499e-09 -4.360330000000001e-10 4.6515599999999994e-10 -3.80658e-09 -7.730909999999999 5.47488 -0.417314 -4.360330000000001e-10 4.6515599999999994e-10 -3.80659e-09 -2.90554 0.965183 -0.102902 -4.36039e-10 4.65154e-10 -3.80659e-09 -10.278600000000003 0.731801 -0.0259123 -4.3602999999999994e-10 4.65155e-10 -3.8066e-09 -2.22167 -0.733487 0.20892000000000002 -2.03217e-16 0.0 -3.88251e-19 -17.4455 3.88086 2.5897200000000002 -0.05728539999999999 36.353 2.03395 1.36493 -0.547076 -13.137599999999999 2.03217e-16 0.0 3.88251e-19 65.0814 -50.0702 65.5578 2.43032 71.8294 -2.65851 2.33754 2.5172 26.7887
-8.02749 57.8792 -11.1565 -15.1099 -33.03209999999999 17.6348 3.2071400000000003 10.557299999999998 13.226000000000003 2.97963 -10.439099999999998 3.8917400000000004 -2.18764 11.1259 5.055760000000001 5.25194 -22.7837 11.2658 -0.0 0.0 0.0 -0.0 0.0 0.0 6.76245e-14 -4.96166e-13 -1.46107e-13 -0.239727 59.510200000000005 80.8947 -28.423000000000002 -34.900099999999995 75.1799 -0.00436521 1.8861599999999998 0.265179 2.6572600000000004e-10 4.579220000000001e-09 -2.14604e-09 4.61269e-10 7.92513e-09 -3.70905e-09 2.65728e-10 4.57919e-09 -2.14605e-09 7.730909999999999 5.47488 0.417314 2.6572699999999994e-10 4.579220000000001e-09 -2.14604e-09 2.90554 0.965183 0.102902 2.65739e-10 4.579220000000001e-09 -2.14604e-09 10.278600000000003 0.731801 0.0259123 2.6572900000000007e-10 4.579220000000001e-09 -2.1460300000000003e-09 2.22167 -0.733487 -0.20892000000000002 6.75535e-14 -4.96167e-13 -1.46405e-13 5.80708 28.7297 -85.4081 23.4244 -50.1046 -105.057 0.19455999999999998 -12.4688 1.78085 1.25652e-09 2.0108899999999995e-09 -3.510619999999999e-09 2.20962e-09 3.48713e-09 -6.072009999999999e-09 1.25652e-09 2.0108899999999995e-09 -3.510619999999999e-09 -7.730909999999999 5.47488 -0.417314 1.25652e-09 2.0108899999999995e-09 -3.5106300000000003e-09 -2.90554 0.965183 -0.102902 1.25652e-09 2.0108899999999995e-09 -3.510619999999999e-09 -10.278600000000003 0.731801 -0.0259123 1.25653e-09 2.0108899999999995e-09 -3.5106300000000003e-09 -2.22167 -0.733487 0.20892000000000002 -2.03217e-16 0.0 -3.88251e-19 -15.328999999999999 4.70171 2.9728100000000004 -0.0239006 33.0047 1.9126199999999995 1.11783 -1.4336599999999997 -15.292499999999999 2.03217e-16 0.0 3.88251e-19 68.1698 -50.4003 64.8975 2.48542 72.237 -2.77696 1.62908 3.3234 25.084999999999997
-8.44094 57.5296 -12.7616 -16.100500000000004 -33.254400000000004 18.2382 4.90642 10.0723 11.197799999999999 3.32729 -9.9944 3.3785 -1.39855 10.4756 6.04435 3.7420499999999994 -20.9224 12.7739 -0.0 0.0 0.0 -0.0 0.0 0.0 1.9932899999999997e-13 -1.15098e-13 -2.28758e-14 16.8382 66.3246 60.2136 -28.2788 -39.20510000000001 82.3777 -0.0833187 -8.54265 -1.25371 2.6138999999999996e-10 1.42712e-09 -5.62724e-10 4.58321e-10 2.3162499999999997e-09 -9.75247e-10 2.61392e-10 1.4270999999999998e-09 -5.62727e-10 7.730909999999999 5.47488 0.417314 2.61388e-10 1.4270999999999998e-09 -5.62715e-10 2.90554 0.965183 0.102902 2.61399e-10 1.42711e-09 -5.62721e-10 10.278600000000003 0.731801 0.0259123 2.6138999999999996e-10 1.42712e-09 -5.62713e-10 2.22167 -0.733487 -0.20892000000000002 1.99347e-13 -1.15094e-13 -2.3146e-14 -5.890669999999999 35.4021 -70.07010000000001 24.817699999999995 -47.117 -100.69999999999999 0.722074 -25.170599999999997 3.73261 1.36405e-09 2.1124400000000006e-09 -8.51275e-10 2.36462e-09 3.6748400000000005e-09 -1.45998e-09 1.36405e-09 2.1124400000000006e-09 -8.51272e-10 -7.730909999999999 5.47488 -0.417314 1.3640600000000001e-09 2.1124400000000006e-09 -8.512810000000001e-10 -2.90554 0.965183 -0.102902 1.36405e-09 2.1124400000000006e-09 -8.51277e-10 -10.278600000000003 0.731801 -0.0259123 1.3640600000000001e-09 2.1124400000000006e-09 -8.512840000000001e-10 -2.22167 -0.733487 0.20892000000000002 -2.03217e-16 0.0 -3.88251e-19 -13.5637 5.72169 1.86358 0.00074011 30.038399999999996 1.8025900000000001 0.236294 -3.4502600000000005 -19.6245 2.03217e-16 0.0 3.88251e-19 70.4705 -51.3935 64.1047 2.63762 73.0741 -2.97621 1.03404 3.86935 21.7947
-8.80266 57.04520000000001 -14.1961 -16.3284 -33.0499 18.309500000000003 6.15017 9.71528 9.161820000000002 3.52553 -9.556139999999997 2.83868 -0.579439 9.95639 6.9069199999999995 2.30395 -19.5794 14.0823 -0.0 0.0 0.0 -0.0 0.0 0.0 2.71123e-13 3.41906e-13 9.690750000000002e-15 45.7939 67.98770000000002 26.4821 -27.397 -42.84960000000001 89.1992 -0.664963 -22.5151 -3.3397900000000003 1.0101499999999999e-09 -2.50915e-10 7.20946e-10 1.73808e-09 -5.84545e-10 1.25791e-09 1.0101499999999999e-09 -2.50935e-10 7.20943e-10 7.730909999999999 5.47488 0.417314 1.01014e-09 -2.5095800000000007e-10 7.209589999999998e-10 2.90554 0.965183 0.102902 1.0101499999999999e-09 -2.50935e-10 7.209480000000001e-10 10.278600000000003 0.731801 0.0259123 1.01014e-09 -2.5091000000000007e-10 7.20955e-10 2.22167 -0.733487 -0.20892000000000002 2.71179e-13 3.41915e-13 9.44227e-15 -19.5351 37.6302 -53.0596 27.0598 -43.853300000000004 -91.1536 1.63794 -33.770199999999996 5.39251 1.27827e-09 -9.79674e-11 1.0729e-09 2.18686e-09 -1.44117e-10 1.87851e-09 1.27827e-09 -9.79607e-11 1.07291e-09 -7.730909999999999 5.47488 -0.417314 1.27827e-09 -9.79635e-11 1.0729e-09 -2.90554 0.965183 -0.102902 1.27826e-09 -9.79641e-11 1.0729e-09 -10.278600000000003 0.731801 -0.0259123 1.27827e-09 -9.79635e-11 1.07289e-09 -2.22167 -0.733487 0.20892000000000002 -2.03217e-16 0.0 -3.88251e-19 -12.1532 6.633070000000001 0.24754100000000004 0.0166428 27.812 1.72732 -1.2023 -5.72884 -24.5142 2.03217e-16 0.0 3.88251e-19 72.2297 -52.4619 63.37679999999999 2.8536899999999994 74.1026 -3.23337 0.633895 4.05649 17.8763
-9.1432 56.428 -15.5037 -15.962099999999998 -32.8916 17.8354 6.6604600000000005 9.69066 7.925769999999999 3.18032 -9.303489999999998 2.47769 0.268894 10.0357 7.40306 1.38441 -19.602600000000002 14.806499999999998 -0.0 0.0 0.0 -0.0 0.0 0.0 2.1330400000000002e-13 6.56186e-13 1.67094e-13 71.55450000000002 62.35070000000001 -5.25912 -26.412800000000004 -45.2703 94.2954 -2.33102 -41.264 -6.8338 2.68868e-09 -4.0108e-10 1.47278e-09 4.5774e-09 -6.58227e-11 2.6538100000000004e-09 2.68868e-09 -4.0109199999999997e-10 1.4727699999999999e-09 7.730909999999999 5.47488 0.417314 2.68867e-09 -4.01104e-10 1.47279e-09 2.90554 0.965183 0.102902 2.68868e-09 -4.0109199999999997e-10 1.47278e-09 10.278600000000003 0.731801 0.0259123 2.68867e-09 -4.0107800000000006e-10 1.47279e-09 2.22167 -0.733487 -0.20892000000000002 2.1323099999999996e-13 6.56191e-13 1.6685499999999997e-13 -28.4117 34.6359 -41.26639999999999 29.613700000000005 -36.2506 -72.20390000000002 0.5839599999999999 -22.9121 3.3169599999999995 2.56032e-09 -8.301609999999999e-09 -1.7197700000000002e-09 4.43108e-09 -1.44046e-08 -2.96334e-09 2.5603099999999994e-09 -8.3016e-09 -1.71975e-09 -7.730909999999999 5.47488 -0.417314 2.56032e-09 -8.3016e-09 -1.7197700000000002e-09 -2.90554 0.965183 -0.102902 2.5603099999999994e-09 -8.301609999999999e-09 -1.7197700000000002e-09 -10.278600000000003 0.731801 -0.0259123 2.56033e-09 -8.301609999999999e-09 -1.7197700000000002e-09 -2.22167 -0.733487 0.20892000000000002 -2.03217e-16 0.0 -3.88251e-19 -11.6104 7.285379999999999 -1.01182 0.0283598 26.296800000000005 1.70319 -2.8630299999999997 -7.81737 -28.4353 2.03217e-16 0.0 3.88251e-19 73.43530000000001 -52.9947 63.1168 3.1112699999999998 75.2187 -3.5563 0.49482600000000004 3.6435099999999996 14.0749
